<svg width="1440" height="345" viewBox="0 0 1440 345" fill="none" xmlns="http://www.w3.org/2000/svg">
<path d="M631.261 9.33142C629.529 23.7613 624.431 41.3659 621.929 41.3659C621.256 41.3659 616.638 39.4419 611.732 37.1331C603.844 33.4775 591.819 29.8219 587.394 29.8219C586.239 29.8219 586.817 31.5535 589.606 37.2293C593.839 45.7911 597.687 59.1628 597.206 63.7804L596.917 66.8588L588.26 67.5323C563.055 69.4562 551.223 70.6107 551.223 71.0916C551.223 71.4765 555.455 75.9978 560.65 81.2888C570.366 91.1012 577.485 101.587 577.004 105.242C576.812 106.589 571.906 110.629 561.805 117.652C553.628 123.328 546.797 128.426 546.605 128.908C546.413 129.389 547.471 130.062 549.01 130.447C559.303 132.66 563.729 134.102 567.384 136.219C572.387 139.201 577.581 143.626 580.179 147.282L582.103 149.975L571.328 160.653C562.286 169.696 560.746 171.525 561.901 172.583C562.67 173.256 568.442 175.468 574.792 177.392C581.141 179.316 586.72 181.337 587.201 181.818C587.682 182.299 586.913 187.205 585.085 193.939C583.45 200.192 582.391 205.675 582.68 206.156C583.161 207.022 599.034 206.252 601.631 205.291C604.036 204.424 604.998 206.733 605.672 214.333C606.057 218.758 606.634 222.51 607.018 222.702C607.788 223.184 618.562 218.566 618.562 217.796C618.562 217.508 617.312 215.487 615.773 213.275C611.347 206.829 608.365 200.192 605.575 190.957C604.229 186.147 602.208 179.701 601.247 176.526C600.188 173.352 599.13 169.023 598.938 166.907C597.591 156.71 597.398 152.958 598.361 152.958C598.842 152.958 599.322 154.593 599.322 156.517C599.419 160.846 601.535 172.39 602.978 176.526C603.555 178.066 605.383 183.742 607.018 189.032C610.963 201.442 616.638 212.602 621.545 217.508C623.853 219.816 628.856 223.087 633.666 225.3L641.746 229.052L641.458 232.611L641.169 236.171L619.717 243.289L598.264 250.504L595.474 259.643C593.935 264.742 589.606 279.845 585.758 293.313C581.91 306.685 578.255 318.229 577.678 318.806C577.1 319.383 575.369 324.578 573.926 330.446C572.483 336.218 571.136 341.798 570.847 342.664C570.366 344.299 574.214 344.395 642.516 344.395C710.914 344.395 714.763 344.299 714.763 342.664C714.763 341.798 710.241 336.795 704.661 331.601C699.082 326.406 694.56 321.596 694.56 320.826C694.56 320.153 698.024 316.593 702.16 312.938C712.742 303.895 712.839 303.318 708.509 292.254C701.198 273.689 685.517 245.021 679.745 239.634C677.917 237.902 677.244 236.266 677.244 233.67C677.244 229.725 678.11 228.763 683.016 227.127C688.019 225.492 692.925 221.74 696.292 217.027C698.985 213.275 700.14 212.602 707.547 210.293C712.069 208.85 715.724 207.31 715.724 206.926C715.724 206.445 713.993 203.944 711.876 201.442C707.74 196.44 706.97 192.881 709.76 192.015C710.625 191.726 713.993 191.245 717.168 190.86C720.341 190.572 723.228 190.09 723.612 189.802C724.479 189.417 719.572 175.757 718.418 175.276C718.033 175.084 717.648 174.218 717.648 173.256C717.648 172.102 718.995 171.236 722.458 170.369C728.422 168.831 742.66 162 742.66 160.75C742.66 160.173 740.832 158.826 738.62 157.671C726.306 151.418 716.301 144.204 718.322 143.049C718.706 142.857 722.265 141.702 726.114 140.548C729.962 139.394 736.215 136.989 740.062 135.257C746.701 132.274 760.361 124.194 759.783 123.616C759.399 123.328 733.328 112.169 730.827 111.303C729.673 110.822 729.385 110.245 729.866 109.379C730.25 108.61 736.599 102.453 743.911 95.7191C751.126 88.8886 757.09 83.0204 757.09 82.6356C757.09 81.866 751.125 80.8078 733.521 78.3066C727.172 77.3446 721.592 76.3826 721.208 75.9978C720.727 75.613 725.152 67.1475 731.02 57.2389C740.544 40.9811 742.372 37.5179 741.409 37.5179C741.217 37.5179 733.328 40.3077 723.901 43.7709C710.145 48.7733 706.393 49.7353 705.431 48.7733C703.314 46.6569 701.294 30.7839 701.294 16.5463V2.7898L693.502 6.92638C684.363 11.8326 672.146 21.3563 666.47 27.9942C664.353 30.5915 662.141 32.7079 661.756 32.7079C661.275 32.7079 657.619 28.2827 653.483 22.7994C646.365 13.3718 634.339 0 632.992 0C632.608 0 631.838 4.23279 631.261 9.33142ZM633.954 250.408C630.395 253.198 612.213 301.202 613.656 303.703C614.137 304.568 618.274 308.513 622.891 312.553C627.605 316.593 631.549 320.345 631.742 320.922C631.934 321.5 630.78 323.616 629.144 325.636C627.605 327.656 626.258 328.714 626.258 328.041C626.258 327.464 627.124 325.732 628.279 324.385L630.299 321.789L621.064 313.131C614.618 307.069 611.828 303.799 611.828 302.259C611.828 299.181 622.795 269.744 629.529 254.641C631.165 250.985 632.511 249.157 633.666 249.157C635.205 249.253 635.205 249.35 633.954 250.408Z" fill="#F5F5F5"/>
<path d="M794.994 135.161C767.962 140.067 753.051 150.745 733.716 179.316C729.483 185.473 729.194 186.243 729.194 192.207C729.194 196.824 728.232 201.346 725.731 209.138C721.498 222.318 721.69 225.396 727.751 235.689C730.155 239.73 732.08 243.578 732.08 244.059C732.08 244.636 730.829 246.464 729.194 248.195C724.095 253.679 724.191 262.144 729.483 267.82C732.561 270.995 739.776 273.977 741.7 272.726C742.181 272.438 741.507 270.225 740.257 267.724C738.91 265.319 737.852 262.626 737.948 261.76C737.948 260.798 738.429 261.086 739.006 262.626C740.641 266.185 748.241 277.921 751.993 282.538C759.401 291.774 775.37 301.105 790.281 305.05C794.803 306.204 802.787 307.262 809.521 307.551C815.87 307.839 820.199 308.416 819.141 308.802C813.368 310.821 786.817 307.069 774.6 302.452L768.251 300.047L766.615 302.259C760.555 310.244 753.628 328.426 751.897 340.74L751.416 344.395H811.06C867.433 344.395 870.704 344.299 870.223 342.664C869.935 341.798 868.395 336.025 866.856 329.869C863.489 316.593 860.795 309.956 856.466 304.28C854.734 301.971 853.292 299.566 853.292 298.893C853.387 298.316 855.792 296.006 858.775 293.89C864.162 290.042 871.57 282.25 875.61 276.094C876.957 274.073 879.073 272.438 880.998 271.861C882.633 271.379 885.711 269.36 887.827 267.436C894.465 261.086 895.139 252.428 889.27 247.329C887.25 245.598 886.962 244.733 887.539 241.654C887.923 239.73 888.5 237.902 888.886 237.613C889.27 237.325 890.136 234.535 890.81 231.36C891.771 226.743 891.771 223.184 890.81 213.275C890.136 206.541 889.174 201.058 888.693 201.058C888.212 201.058 887.923 198.364 888.02 194.997C888.212 189.706 887.731 188.071 884.268 181.337C879.651 172.197 872.82 162.193 865.894 154.689C861.661 150.071 858.871 148.244 848.001 142.857C840.305 139.105 832.416 135.93 828.569 135.161C820.584 133.429 804.23 133.429 794.994 135.161Z" fill="#F5F5F5"/>
<path d="M682.055 240.115C682.055 240.404 683.883 243.097 686.192 246.079C688.5 249.062 691.675 253.775 693.407 256.373C697.928 263.587 708.414 286.098 711.492 295.045C714.859 304.568 714.571 305.242 704.469 313.803C700.621 317.074 697.447 320.538 697.447 321.307C697.447 322.173 701.776 326.79 707.067 331.793C712.839 337.084 716.687 341.413 716.687 342.568C716.687 344.299 717.457 344.395 730.155 344.395C740.256 344.395 743.623 344.106 743.623 343.145C743.623 339.104 720.054 254.352 717.841 250.312C717.457 249.542 711.3 247.522 704.181 245.694C697.062 243.963 689.655 241.846 687.634 240.981C683.691 239.441 682.055 239.153 682.055 240.115Z" fill="#F5F5F5"/>
</svg>
